<mxfile host="app.diagrams.net" agent="Mozilla/5.0 (Windows NT 10.0; Win64; x64) AppleWebKit/537.36 (KHTML, like Gecko) Chrome/138.0.0.0 Safari/537.36" version="28.0.4" pages="2">
  <diagram name="페이지-1" id="4_-gEds1cW5Wz5skQCzr">
    <mxGraphModel dx="1188" dy="626" grid="1" gridSize="10" guides="1" tooltips="1" connect="1" arrows="1" fold="1" page="1" pageScale="1" pageWidth="827" pageHeight="1169" math="0" shadow="0">
      <root>
        <mxCell id="0" />
        <mxCell id="1" parent="0" />
        <mxCell id="s-dct3Dixf6LsZUuaDkr-1" value="회원" style="shape=umlActor;verticalLabelPosition=bottom;verticalAlign=top;html=1;outlineConnect=0;" vertex="1" parent="1">
          <mxGeometry x="60" y="200" width="30" height="60" as="geometry" />
        </mxCell>
        <mxCell id="s-dct3Dixf6LsZUuaDkr-2" value="비회원" style="shape=umlActor;verticalLabelPosition=bottom;verticalAlign=top;html=1;outlineConnect=0;" vertex="1" parent="1">
          <mxGeometry x="50" y="525" width="30" height="60" as="geometry" />
        </mxCell>
        <mxCell id="s-dct3Dixf6LsZUuaDkr-3" value="관리자" style="shape=umlActor;verticalLabelPosition=bottom;verticalAlign=top;html=1;outlineConnect=0;" vertex="1" parent="1">
          <mxGeometry x="780" y="330" width="30" height="60" as="geometry" />
        </mxCell>
        <mxCell id="s-dct3Dixf6LsZUuaDkr-9" value="대구특별시 홈페이지" style="shape=umlFrame;whiteSpace=wrap;html=1;pointerEvents=0;width=130;height=30;" vertex="1" parent="1">
          <mxGeometry x="110" y="110" width="650" height="510" as="geometry" />
        </mxCell>
        <mxCell id="s-dct3Dixf6LsZUuaDkr-33" value="" style="group" vertex="1" connectable="0" parent="1">
          <mxGeometry x="300" y="159" width="179" height="120" as="geometry" />
        </mxCell>
        <mxCell id="s-dct3Dixf6LsZUuaDkr-34" value="감사정보" style="ellipse;whiteSpace=wrap;html=1;" vertex="1" parent="s-dct3Dixf6LsZUuaDkr-33">
          <mxGeometry x="47" width="80" height="50" as="geometry" />
        </mxCell>
        <mxCell id="s-dct3Dixf6LsZUuaDkr-35" value="조회" style="ellipse;whiteSpace=wrap;html=1;aspect=fixed;" vertex="1" parent="s-dct3Dixf6LsZUuaDkr-33">
          <mxGeometry x="-10" y="5" width="40" height="40" as="geometry" />
        </mxCell>
        <mxCell id="s-dct3Dixf6LsZUuaDkr-43" value="" style="edgeStyle=orthogonalEdgeStyle;rounded=0;orthogonalLoop=1;jettySize=auto;html=1;endArrow=block;endFill=0;endSize=4;" edge="1" parent="s-dct3Dixf6LsZUuaDkr-33" source="s-dct3Dixf6LsZUuaDkr-36" target="s-dct3Dixf6LsZUuaDkr-34">
          <mxGeometry relative="1" as="geometry">
            <Array as="points">
              <mxPoint x="113" y="61" />
              <mxPoint x="87" y="61" />
            </Array>
          </mxGeometry>
        </mxCell>
        <mxCell id="s-dct3Dixf6LsZUuaDkr-36" value="수정" style="ellipse;whiteSpace=wrap;html=1;aspect=fixed;" vertex="1" parent="s-dct3Dixf6LsZUuaDkr-33">
          <mxGeometry x="93" y="80" width="40" height="40" as="geometry" />
        </mxCell>
        <mxCell id="s-dct3Dixf6LsZUuaDkr-44" value="" style="edgeStyle=orthogonalEdgeStyle;rounded=0;orthogonalLoop=1;jettySize=auto;html=1;endArrow=block;endFill=0;endSize=4;" edge="1" parent="s-dct3Dixf6LsZUuaDkr-33" source="s-dct3Dixf6LsZUuaDkr-38" target="s-dct3Dixf6LsZUuaDkr-34">
          <mxGeometry relative="1" as="geometry">
            <Array as="points">
              <mxPoint x="159" y="61" />
              <mxPoint x="87" y="61" />
            </Array>
          </mxGeometry>
        </mxCell>
        <mxCell id="s-dct3Dixf6LsZUuaDkr-38" value="삭제" style="ellipse;whiteSpace=wrap;html=1;aspect=fixed;" vertex="1" parent="s-dct3Dixf6LsZUuaDkr-33">
          <mxGeometry x="139" y="80" width="40" height="40" as="geometry" />
        </mxCell>
        <mxCell id="s-dct3Dixf6LsZUuaDkr-50" value="" style="endArrow=block;endFill=0;endSize=4;html=1;rounded=0;exitX=1.001;exitY=0.608;exitDx=0;exitDy=0;exitPerimeter=0;entryX=-0.002;entryY=0.582;entryDx=0;entryDy=0;entryPerimeter=0;" edge="1" parent="s-dct3Dixf6LsZUuaDkr-33" source="s-dct3Dixf6LsZUuaDkr-35" target="s-dct3Dixf6LsZUuaDkr-34">
          <mxGeometry width="160" relative="1" as="geometry">
            <mxPoint x="-42" y="41" as="sourcePoint" />
            <mxPoint x="118" y="41" as="targetPoint" />
          </mxGeometry>
        </mxCell>
        <mxCell id="s-dct3Dixf6LsZUuaDkr-42" value="" style="edgeStyle=orthogonalEdgeStyle;rounded=0;orthogonalLoop=1;jettySize=auto;html=1;entryX=0.5;entryY=1;entryDx=0;entryDy=0;endArrow=block;endFill=0;endSize=4;" edge="1" parent="1" source="s-dct3Dixf6LsZUuaDkr-37" target="s-dct3Dixf6LsZUuaDkr-34">
          <mxGeometry relative="1" as="geometry">
            <Array as="points">
              <mxPoint x="366" y="220" />
              <mxPoint x="387" y="220" />
            </Array>
          </mxGeometry>
        </mxCell>
        <mxCell id="s-dct3Dixf6LsZUuaDkr-37" value="등록" style="ellipse;whiteSpace=wrap;html=1;aspect=fixed;" vertex="1" parent="1">
          <mxGeometry x="346" y="239" width="40" height="40" as="geometry" />
        </mxCell>
        <mxCell id="s-dct3Dixf6LsZUuaDkr-39" value="&lt;font style=&quot;font-size: 8px;&quot;&gt;USE&lt;/font&gt;" style="html=1;verticalAlign=bottom;endArrow=block;curved=0;rounded=0;entryX=0.065;entryY=0.31;entryDx=0;entryDy=0;entryPerimeter=0;" edge="1" parent="1" source="s-dct3Dixf6LsZUuaDkr-2" target="s-dct3Dixf6LsZUuaDkr-41">
          <mxGeometry width="80" relative="1" as="geometry">
            <mxPoint x="390" y="470" as="sourcePoint" />
            <mxPoint x="470" y="470" as="targetPoint" />
          </mxGeometry>
        </mxCell>
        <mxCell id="s-dct3Dixf6LsZUuaDkr-40" value="로그인" style="strokeWidth=1;html=1;shape=mxgraph.flowchart.start_1;whiteSpace=wrap;" vertex="1" parent="1">
          <mxGeometry x="140" y="340" width="60" height="50" as="geometry" />
        </mxCell>
        <mxCell id="s-dct3Dixf6LsZUuaDkr-41" value="회원가입" style="strokeWidth=1;html=1;shape=mxgraph.flowchart.start_1;whiteSpace=wrap;" vertex="1" parent="1">
          <mxGeometry x="170" y="550" width="60" height="50" as="geometry" />
        </mxCell>
        <mxCell id="s-dct3Dixf6LsZUuaDkr-51" value="" style="endArrow=block;endFill=1;endSize=5;html=1;rounded=0;entryX=1;entryY=0.5;entryDx=0;entryDy=0;" edge="1" parent="1" source="s-dct3Dixf6LsZUuaDkr-3" target="s-dct3Dixf6LsZUuaDkr-34">
          <mxGeometry width="160" relative="1" as="geometry">
            <mxPoint x="560" y="280" as="sourcePoint" />
            <mxPoint x="720" y="280" as="targetPoint" />
          </mxGeometry>
        </mxCell>
        <mxCell id="s-dct3Dixf6LsZUuaDkr-52" value="&lt;font style=&quot;font-size: 8px;&quot;&gt;USE&lt;/font&gt;" style="edgeLabel;html=1;align=center;verticalAlign=middle;resizable=0;points=[];" vertex="1" connectable="0" parent="s-dct3Dixf6LsZUuaDkr-51">
          <mxGeometry x="0.0004" y="1" relative="1" as="geometry">
            <mxPoint as="offset" />
          </mxGeometry>
        </mxCell>
        <mxCell id="s-dct3Dixf6LsZUuaDkr-53" value="" style="endArrow=block;endFill=1;endSize=5;html=1;rounded=0;entryX=0;entryY=0.5;entryDx=0;entryDy=0;" edge="1" parent="1" source="s-dct3Dixf6LsZUuaDkr-1" target="s-dct3Dixf6LsZUuaDkr-35">
          <mxGeometry width="160" relative="1" as="geometry">
            <mxPoint x="331" y="383" as="sourcePoint" />
            <mxPoint x="150" y="220" as="targetPoint" />
          </mxGeometry>
        </mxCell>
        <mxCell id="s-dct3Dixf6LsZUuaDkr-54" value="&lt;font style=&quot;font-size: 8px;&quot;&gt;USE&lt;/font&gt;" style="edgeLabel;html=1;align=center;verticalAlign=middle;resizable=0;points=[];" vertex="1" connectable="0" parent="s-dct3Dixf6LsZUuaDkr-53">
          <mxGeometry x="0.0004" y="1" relative="1" as="geometry">
            <mxPoint as="offset" />
          </mxGeometry>
        </mxCell>
        <mxCell id="s-dct3Dixf6LsZUuaDkr-55" value="" style="group" vertex="1" connectable="0" parent="1">
          <mxGeometry x="530" y="400" width="179" height="120" as="geometry" />
        </mxCell>
        <mxCell id="s-dct3Dixf6LsZUuaDkr-56" value="시청안내" style="ellipse;whiteSpace=wrap;html=1;" vertex="1" parent="s-dct3Dixf6LsZUuaDkr-55">
          <mxGeometry x="47" width="80" height="50" as="geometry" />
        </mxCell>
        <mxCell id="s-dct3Dixf6LsZUuaDkr-58" value="" style="edgeStyle=orthogonalEdgeStyle;rounded=0;orthogonalLoop=1;jettySize=auto;html=1;endArrow=block;endFill=0;endSize=4;" edge="1" parent="s-dct3Dixf6LsZUuaDkr-55" source="s-dct3Dixf6LsZUuaDkr-59" target="s-dct3Dixf6LsZUuaDkr-56">
          <mxGeometry relative="1" as="geometry">
            <Array as="points">
              <mxPoint x="113" y="60" />
              <mxPoint x="87" y="60" />
            </Array>
          </mxGeometry>
        </mxCell>
        <mxCell id="s-dct3Dixf6LsZUuaDkr-59" value="수정" style="ellipse;whiteSpace=wrap;html=1;aspect=fixed;" vertex="1" parent="s-dct3Dixf6LsZUuaDkr-55">
          <mxGeometry x="93" y="80" width="40" height="40" as="geometry" />
        </mxCell>
        <mxCell id="s-dct3Dixf6LsZUuaDkr-60" value="" style="edgeStyle=orthogonalEdgeStyle;rounded=0;orthogonalLoop=1;jettySize=auto;html=1;endArrow=block;endFill=0;endSize=4;" edge="1" parent="s-dct3Dixf6LsZUuaDkr-55" source="s-dct3Dixf6LsZUuaDkr-61" target="s-dct3Dixf6LsZUuaDkr-56">
          <mxGeometry relative="1" as="geometry">
            <Array as="points">
              <mxPoint x="159" y="60" />
              <mxPoint x="87" y="60" />
            </Array>
          </mxGeometry>
        </mxCell>
        <mxCell id="s-dct3Dixf6LsZUuaDkr-61" value="삭제" style="ellipse;whiteSpace=wrap;html=1;aspect=fixed;" vertex="1" parent="s-dct3Dixf6LsZUuaDkr-55">
          <mxGeometry x="139" y="80" width="40" height="40" as="geometry" />
        </mxCell>
        <mxCell id="s-dct3Dixf6LsZUuaDkr-63" value="" style="edgeStyle=orthogonalEdgeStyle;rounded=0;orthogonalLoop=1;jettySize=auto;html=1;entryX=0.5;entryY=1;entryDx=0;entryDy=0;endArrow=block;endFill=0;endSize=4;" edge="1" parent="s-dct3Dixf6LsZUuaDkr-55" target="s-dct3Dixf6LsZUuaDkr-56">
          <mxGeometry relative="1" as="geometry">
            <Array as="points">
              <mxPoint x="70" y="60" />
              <mxPoint x="87" y="60" />
            </Array>
            <mxPoint x="70" y="90" as="sourcePoint" />
          </mxGeometry>
        </mxCell>
        <mxCell id="s-dct3Dixf6LsZUuaDkr-64" value="등록" style="ellipse;whiteSpace=wrap;html=1;aspect=fixed;" vertex="1" parent="s-dct3Dixf6LsZUuaDkr-55">
          <mxGeometry x="40" y="80" width="40" height="40" as="geometry" />
        </mxCell>
        <mxCell id="s-dct3Dixf6LsZUuaDkr-66" value="" style="endArrow=block;endFill=1;endSize=5;html=1;rounded=0;entryX=-0.023;entryY=0.735;entryDx=0;entryDy=0;entryPerimeter=0;" edge="1" parent="1" source="s-dct3Dixf6LsZUuaDkr-2" target="s-dct3Dixf6LsZUuaDkr-57">
          <mxGeometry width="160" relative="1" as="geometry">
            <mxPoint x="751" y="533" as="sourcePoint" />
            <mxPoint x="570" y="370" as="targetPoint" />
            <Array as="points">
              <mxPoint x="450" y="480" />
            </Array>
          </mxGeometry>
        </mxCell>
        <mxCell id="s-dct3Dixf6LsZUuaDkr-67" value="&lt;font style=&quot;font-size: 8px;&quot;&gt;USE&lt;/font&gt;" style="edgeLabel;html=1;align=center;verticalAlign=middle;resizable=0;points=[];" vertex="1" connectable="0" parent="s-dct3Dixf6LsZUuaDkr-66">
          <mxGeometry x="0.0004" y="1" relative="1" as="geometry">
            <mxPoint as="offset" />
          </mxGeometry>
        </mxCell>
        <mxCell id="s-dct3Dixf6LsZUuaDkr-73" value="&lt;font style=&quot;font-size: 8px;&quot;&gt;&amp;lt;&amp;lt;Include&amp;gt;&amp;gt;&lt;/font&gt;" style="endArrow=open;endSize=6;dashed=1;html=1;rounded=0;exitX=0.034;exitY=0.609;exitDx=0;exitDy=0;entryX=1;entryY=0.5;entryDx=0;entryDy=0;entryPerimeter=0;exitPerimeter=0;" edge="1" parent="1" source="s-dct3Dixf6LsZUuaDkr-10" target="s-dct3Dixf6LsZUuaDkr-40">
          <mxGeometry width="160" relative="1" as="geometry">
            <mxPoint x="230" y="280" as="sourcePoint" />
            <mxPoint x="390" y="280" as="targetPoint" />
          </mxGeometry>
        </mxCell>
        <mxCell id="s-dct3Dixf6LsZUuaDkr-11" value="삭제" style="ellipse;whiteSpace=wrap;html=1;aspect=fixed;" vertex="1" parent="1">
          <mxGeometry x="346" y="415" width="40" height="40" as="geometry" />
        </mxCell>
        <mxCell id="s-dct3Dixf6LsZUuaDkr-13" value="등록" style="ellipse;whiteSpace=wrap;html=1;aspect=fixed;" vertex="1" parent="1">
          <mxGeometry x="295" y="415" width="40" height="40" as="geometry" />
        </mxCell>
        <mxCell id="s-dct3Dixf6LsZUuaDkr-14" value="수정" style="ellipse;whiteSpace=wrap;html=1;aspect=fixed;" vertex="1" parent="1">
          <mxGeometry x="387" y="415" width="40" height="40" as="geometry" />
        </mxCell>
        <mxCell id="s-dct3Dixf6LsZUuaDkr-69" value="" style="endArrow=block;endFill=0;endSize=4;html=1;rounded=0;exitX=0.43;exitY=-0.001;exitDx=0;exitDy=0;entryX=0.574;entryY=0.998;entryDx=0;entryDy=0;entryPerimeter=0;exitPerimeter=0;" edge="1" parent="1" source="s-dct3Dixf6LsZUuaDkr-13" target="s-dct3Dixf6LsZUuaDkr-10">
          <mxGeometry width="160" relative="1" as="geometry">
            <mxPoint x="261" y="414.48" as="sourcePoint" />
            <mxPoint x="228" y="375" as="targetPoint" />
            <Array as="points">
              <mxPoint x="320" y="395" />
              <mxPoint x="341" y="395" />
            </Array>
          </mxGeometry>
        </mxCell>
        <mxCell id="s-dct3Dixf6LsZUuaDkr-70" value="" style="endArrow=block;endFill=0;endSize=4;html=1;rounded=0;exitX=0.341;exitY=0.032;exitDx=0;exitDy=0;exitPerimeter=0;entryX=0.575;entryY=0.997;entryDx=0;entryDy=0;entryPerimeter=0;" edge="1" parent="1" source="s-dct3Dixf6LsZUuaDkr-14" target="s-dct3Dixf6LsZUuaDkr-10">
          <mxGeometry width="160" relative="1" as="geometry">
            <mxPoint x="211" y="375" as="sourcePoint" />
            <mxPoint x="341" y="385" as="targetPoint" />
            <Array as="points">
              <mxPoint x="400" y="395" />
              <mxPoint x="341" y="395" />
            </Array>
          </mxGeometry>
        </mxCell>
        <mxCell id="s-dct3Dixf6LsZUuaDkr-71" value="" style="endArrow=block;endFill=0;endSize=4;html=1;rounded=0;exitX=0.614;exitY=0.019;exitDx=0;exitDy=0;exitPerimeter=0;entryX=0.575;entryY=0.998;entryDx=0;entryDy=0;entryPerimeter=0;" edge="1" parent="1" source="s-dct3Dixf6LsZUuaDkr-11" target="s-dct3Dixf6LsZUuaDkr-10">
          <mxGeometry width="160" relative="1" as="geometry">
            <mxPoint x="441" y="375" as="sourcePoint" />
            <mxPoint x="341" y="405" as="targetPoint" />
            <Array as="points">
              <mxPoint x="341" y="395" />
            </Array>
          </mxGeometry>
        </mxCell>
        <mxCell id="s-dct3Dixf6LsZUuaDkr-10" value="자유게시판" style="ellipse;whiteSpace=wrap;html=1;" vertex="1" parent="1">
          <mxGeometry x="295" y="335" width="80" height="50" as="geometry" />
        </mxCell>
        <mxCell id="s-dct3Dixf6LsZUuaDkr-74" value="" style="endArrow=block;endFill=1;endSize=5;html=1;rounded=0;entryX=0.028;entryY=0.321;entryDx=0;entryDy=0;entryPerimeter=0;" edge="1" parent="1" source="s-dct3Dixf6LsZUuaDkr-1" target="s-dct3Dixf6LsZUuaDkr-10">
          <mxGeometry width="160" relative="1" as="geometry">
            <mxPoint x="150" y="304" as="sourcePoint" />
            <mxPoint x="522" y="260" as="targetPoint" />
          </mxGeometry>
        </mxCell>
        <mxCell id="s-dct3Dixf6LsZUuaDkr-75" value="&lt;font style=&quot;font-size: 8px;&quot;&gt;USE&lt;/font&gt;" style="edgeLabel;html=1;align=center;verticalAlign=middle;resizable=0;points=[];" vertex="1" connectable="0" parent="s-dct3Dixf6LsZUuaDkr-74">
          <mxGeometry x="0.0004" y="1" relative="1" as="geometry">
            <mxPoint as="offset" />
          </mxGeometry>
        </mxCell>
        <mxCell id="s-dct3Dixf6LsZUuaDkr-76" value="" style="endArrow=block;endFill=1;endSize=5;html=1;rounded=0;entryX=0;entryY=1;entryDx=0;entryDy=0;" edge="1" parent="1" source="s-dct3Dixf6LsZUuaDkr-2">
          <mxGeometry width="160" relative="1" as="geometry">
            <mxPoint x="350" y="522" as="sourcePoint" />
            <mxPoint x="346.85786437626916" y="449.1421356237306" as="targetPoint" />
          </mxGeometry>
        </mxCell>
        <mxCell id="s-dct3Dixf6LsZUuaDkr-77" value="&lt;font style=&quot;font-size: 8px;&quot;&gt;USE&lt;/font&gt;" style="edgeLabel;html=1;align=center;verticalAlign=middle;resizable=0;points=[];" vertex="1" connectable="0" parent="s-dct3Dixf6LsZUuaDkr-76">
          <mxGeometry x="0.0004" y="1" relative="1" as="geometry">
            <mxPoint as="offset" />
          </mxGeometry>
        </mxCell>
        <mxCell id="s-dct3Dixf6LsZUuaDkr-78" value="" style="endArrow=block;endFill=1;endSize=5;html=1;rounded=0;entryX=0.961;entryY=0.285;entryDx=0;entryDy=0;entryPerimeter=0;" edge="1" parent="1" source="s-dct3Dixf6LsZUuaDkr-3" target="s-dct3Dixf6LsZUuaDkr-56">
          <mxGeometry width="160" relative="1" as="geometry">
            <mxPoint x="831" y="573" as="sourcePoint" />
            <mxPoint x="650" y="410" as="targetPoint" />
          </mxGeometry>
        </mxCell>
        <mxCell id="s-dct3Dixf6LsZUuaDkr-79" value="&lt;font style=&quot;font-size: 8px;&quot;&gt;USE&lt;/font&gt;" style="edgeLabel;html=1;align=center;verticalAlign=middle;resizable=0;points=[];" vertex="1" connectable="0" parent="s-dct3Dixf6LsZUuaDkr-78">
          <mxGeometry x="0.0004" y="1" relative="1" as="geometry">
            <mxPoint as="offset" />
          </mxGeometry>
        </mxCell>
        <mxCell id="s-dct3Dixf6LsZUuaDkr-80" value="" style="endArrow=block;endFill=1;endSize=5;html=1;rounded=0;entryX=0.02;entryY=0.214;entryDx=0;entryDy=0;entryPerimeter=0;" edge="1" parent="1" source="s-dct3Dixf6LsZUuaDkr-1" target="s-dct3Dixf6LsZUuaDkr-57">
          <mxGeometry width="160" relative="1" as="geometry">
            <mxPoint x="150" y="354" as="sourcePoint" />
            <mxPoint x="522" y="310" as="targetPoint" />
            <Array as="points">
              <mxPoint x="460" y="320" />
            </Array>
          </mxGeometry>
        </mxCell>
        <mxCell id="s-dct3Dixf6LsZUuaDkr-82" value="" style="endArrow=block;endFill=1;endSize=5;html=1;rounded=0;entryX=1.013;entryY=0.38;entryDx=0;entryDy=0;entryPerimeter=0;" edge="1" parent="1" source="s-dct3Dixf6LsZUuaDkr-3" target="s-dct3Dixf6LsZUuaDkr-10">
          <mxGeometry width="160" relative="1" as="geometry">
            <mxPoint x="923" y="489" as="sourcePoint" />
            <mxPoint x="570" y="320" as="targetPoint" />
          </mxGeometry>
        </mxCell>
        <mxCell id="s-dct3Dixf6LsZUuaDkr-83" value="&lt;font style=&quot;font-size: 8px;&quot;&gt;USE&lt;/font&gt;" style="edgeLabel;html=1;align=center;verticalAlign=middle;resizable=0;points=[];" vertex="1" connectable="0" parent="s-dct3Dixf6LsZUuaDkr-82">
          <mxGeometry x="0.0004" y="1" relative="1" as="geometry">
            <mxPoint as="offset" />
          </mxGeometry>
        </mxCell>
        <mxCell id="s-dct3Dixf6LsZUuaDkr-84" value="" style="endArrow=block;endFill=1;endSize=5;html=1;rounded=0;entryX=0.264;entryY=0.06;entryDx=0;entryDy=0;entryPerimeter=0;" edge="1" parent="1" source="s-dct3Dixf6LsZUuaDkr-1" target="s-dct3Dixf6LsZUuaDkr-40">
          <mxGeometry width="160" relative="1" as="geometry">
            <mxPoint x="60" y="290" as="sourcePoint" />
            <mxPoint x="267" y="403" as="targetPoint" />
          </mxGeometry>
        </mxCell>
        <mxCell id="s-dct3Dixf6LsZUuaDkr-85" value="&lt;font style=&quot;font-size: 8px;&quot;&gt;USE&lt;/font&gt;" style="edgeLabel;html=1;align=center;verticalAlign=middle;resizable=0;points=[];" vertex="1" connectable="0" parent="s-dct3Dixf6LsZUuaDkr-84">
          <mxGeometry x="0.0004" y="1" relative="1" as="geometry">
            <mxPoint as="offset" />
          </mxGeometry>
        </mxCell>
        <mxCell id="s-dct3Dixf6LsZUuaDkr-94" value="게시글&lt;div&gt;조회&lt;/div&gt;" style="ellipse;whiteSpace=wrap;html=1;aspect=fixed;" vertex="1" parent="1">
          <mxGeometry x="200" y="390" width="40" height="40" as="geometry" />
        </mxCell>
        <mxCell id="s-dct3Dixf6LsZUuaDkr-98" value="&lt;font style=&quot;font-size: 8px;&quot;&gt;전체글보기&lt;/font&gt;" style="strokeWidth=1;html=1;shape=mxgraph.flowchart.start_1;whiteSpace=wrap;" vertex="1" parent="1">
          <mxGeometry x="142.5" y="458.45" width="55" height="30" as="geometry" />
        </mxCell>
        <mxCell id="s-dct3Dixf6LsZUuaDkr-99" value="&lt;font style=&quot;font-size: 8px;&quot;&gt;키워드 검색&lt;/font&gt;" style="strokeWidth=1;html=1;shape=mxgraph.flowchart.start_1;whiteSpace=wrap;" vertex="1" parent="1">
          <mxGeometry x="210" y="453.45" width="45" height="30" as="geometry" />
        </mxCell>
        <mxCell id="s-dct3Dixf6LsZUuaDkr-100" value="&lt;font style=&quot;font-size: 8px;&quot;&gt;&amp;lt;&amp;lt;Extend&amp;gt;&amp;gt;&lt;/font&gt;" style="endArrow=open;endSize=7;dashed=1;html=1;rounded=0;exitX=0.429;exitY=0;exitDx=0;exitDy=0;exitPerimeter=0;entryX=0.5;entryY=1;entryDx=0;entryDy=0;" edge="1" parent="1" source="s-dct3Dixf6LsZUuaDkr-98" target="s-dct3Dixf6LsZUuaDkr-94">
          <mxGeometry x="-0.4871" y="-6" width="160" relative="1" as="geometry">
            <mxPoint x="95" y="431" as="sourcePoint" />
            <mxPoint x="255" y="431" as="targetPoint" />
            <mxPoint as="offset" />
          </mxGeometry>
        </mxCell>
        <mxCell id="s-dct3Dixf6LsZUuaDkr-101" value="&lt;font style=&quot;font-size: 8px;&quot;&gt;&amp;lt;&amp;lt;Extend&amp;gt;&amp;gt;&lt;/font&gt;" style="endArrow=open;endSize=7;dashed=1;html=1;rounded=0;exitX=0.398;exitY=-0.054;exitDx=0;exitDy=0;exitPerimeter=0;entryX=0.5;entryY=1;entryDx=0;entryDy=0;" edge="1" parent="1" source="s-dct3Dixf6LsZUuaDkr-99" target="s-dct3Dixf6LsZUuaDkr-94">
          <mxGeometry x="-0.7382" y="-3" width="160" relative="1" as="geometry">
            <mxPoint x="285" y="526" as="sourcePoint" />
            <mxPoint x="292" y="461" as="targetPoint" />
            <mxPoint as="offset" />
          </mxGeometry>
        </mxCell>
        <mxCell id="s-dct3Dixf6LsZUuaDkr-102" value="" style="endArrow=block;endFill=1;endSize=5;html=1;rounded=0;" edge="1" parent="1" source="s-dct3Dixf6LsZUuaDkr-1">
          <mxGeometry width="160" relative="1" as="geometry">
            <mxPoint x="110" y="410" as="sourcePoint" />
            <mxPoint x="200" y="410" as="targetPoint" />
            <Array as="points">
              <mxPoint x="80" y="280" />
              <mxPoint x="80" y="410" />
            </Array>
          </mxGeometry>
        </mxCell>
        <mxCell id="s-dct3Dixf6LsZUuaDkr-103" value="&lt;font style=&quot;font-size: 8px;&quot;&gt;USE&lt;/font&gt;" style="edgeLabel;html=1;align=center;verticalAlign=middle;resizable=0;points=[];" vertex="1" connectable="0" parent="s-dct3Dixf6LsZUuaDkr-102">
          <mxGeometry x="0.0004" y="1" relative="1" as="geometry">
            <mxPoint x="-6" y="10" as="offset" />
          </mxGeometry>
        </mxCell>
        <mxCell id="s-dct3Dixf6LsZUuaDkr-104" value="" style="endArrow=block;endFill=1;endSize=5;html=1;rounded=0;entryX=0;entryY=0.5;entryDx=0;entryDy=0;" edge="1" parent="1" target="s-dct3Dixf6LsZUuaDkr-94">
          <mxGeometry width="160" relative="1" as="geometry">
            <mxPoint x="70" y="520" as="sourcePoint" />
            <mxPoint x="136" y="582" as="targetPoint" />
            <Array as="points">
              <mxPoint x="80" y="510" />
              <mxPoint x="80" y="410" />
            </Array>
          </mxGeometry>
        </mxCell>
        <mxCell id="s-dct3Dixf6LsZUuaDkr-106" value="관리자&lt;div&gt;로그인&lt;/div&gt;" style="strokeWidth=1;html=1;shape=mxgraph.flowchart.start_1;whiteSpace=wrap;" vertex="1" parent="1">
          <mxGeometry x="680" y="125" width="60" height="50" as="geometry" />
        </mxCell>
        <mxCell id="s-dct3Dixf6LsZUuaDkr-109" value="" style="group" vertex="1" connectable="0" parent="1">
          <mxGeometry x="479" y="140" width="179" height="120" as="geometry" />
        </mxCell>
        <mxCell id="s-dct3Dixf6LsZUuaDkr-110" value="회원관리" style="ellipse;whiteSpace=wrap;html=1;" vertex="1" parent="s-dct3Dixf6LsZUuaDkr-109">
          <mxGeometry x="77" y="-10" width="47" height="40" as="geometry" />
        </mxCell>
        <mxCell id="s-dct3Dixf6LsZUuaDkr-112" value="" style="edgeStyle=orthogonalEdgeStyle;rounded=0;orthogonalLoop=1;jettySize=auto;html=1;endArrow=block;endFill=0;endSize=4;" edge="1" parent="s-dct3Dixf6LsZUuaDkr-109" source="s-dct3Dixf6LsZUuaDkr-113" target="s-dct3Dixf6LsZUuaDkr-110">
          <mxGeometry relative="1" as="geometry">
            <Array as="points">
              <mxPoint x="80" y="40" />
              <mxPoint x="97" y="40" />
            </Array>
          </mxGeometry>
        </mxCell>
        <mxCell id="s-dct3Dixf6LsZUuaDkr-113" value="수정" style="ellipse;whiteSpace=wrap;html=1;aspect=fixed;" vertex="1" parent="s-dct3Dixf6LsZUuaDkr-109">
          <mxGeometry x="60" y="60" width="40" height="40" as="geometry" />
        </mxCell>
        <mxCell id="s-dct3Dixf6LsZUuaDkr-114" value="" style="edgeStyle=orthogonalEdgeStyle;rounded=0;orthogonalLoop=1;jettySize=auto;html=1;endArrow=block;endFill=0;endSize=4;" edge="1" parent="s-dct3Dixf6LsZUuaDkr-109" source="s-dct3Dixf6LsZUuaDkr-115" target="s-dct3Dixf6LsZUuaDkr-110">
          <mxGeometry relative="1" as="geometry">
            <Array as="points">
              <mxPoint x="126" y="40" />
              <mxPoint x="97" y="40" />
            </Array>
          </mxGeometry>
        </mxCell>
        <mxCell id="s-dct3Dixf6LsZUuaDkr-115" value="삭제" style="ellipse;whiteSpace=wrap;html=1;aspect=fixed;" vertex="1" parent="s-dct3Dixf6LsZUuaDkr-109">
          <mxGeometry x="106" y="60" width="40" height="40" as="geometry" />
        </mxCell>
        <mxCell id="s-dct3Dixf6LsZUuaDkr-117" value="" style="endArrow=block;endFill=1;endSize=5;html=1;rounded=0;entryX=1;entryY=0.5;entryDx=0;entryDy=0;" edge="1" parent="1" source="s-dct3Dixf6LsZUuaDkr-3" target="s-dct3Dixf6LsZUuaDkr-110">
          <mxGeometry width="160" relative="1" as="geometry">
            <mxPoint x="737" y="262" as="sourcePoint" />
            <mxPoint x="670" y="170" as="targetPoint" />
          </mxGeometry>
        </mxCell>
        <mxCell id="s-dct3Dixf6LsZUuaDkr-118" value="&lt;font style=&quot;font-size: 8px;&quot;&gt;USE&lt;/font&gt;" style="edgeLabel;html=1;align=center;verticalAlign=middle;resizable=0;points=[];" vertex="1" connectable="0" parent="s-dct3Dixf6LsZUuaDkr-117">
          <mxGeometry x="0.0004" y="1" relative="1" as="geometry">
            <mxPoint as="offset" />
          </mxGeometry>
        </mxCell>
        <mxCell id="s-dct3Dixf6LsZUuaDkr-119" value="&lt;font style=&quot;font-size: 8px;&quot;&gt;&amp;lt;&amp;lt;Include&amp;gt;&amp;gt;&lt;/font&gt;" style="endArrow=open;endSize=8;dashed=1;html=1;rounded=0;entryX=0.026;entryY=0.431;entryDx=0;entryDy=0;entryPerimeter=0;exitX=1;exitY=0.5;exitDx=0;exitDy=0;" edge="1" parent="1" source="s-dct3Dixf6LsZUuaDkr-110" target="s-dct3Dixf6LsZUuaDkr-106">
          <mxGeometry x="0.0028" width="160" relative="1" as="geometry">
            <mxPoint x="600" y="200" as="sourcePoint" />
            <mxPoint x="550" y="270" as="targetPoint" />
            <mxPoint as="offset" />
          </mxGeometry>
        </mxCell>
        <mxCell id="s-dct3Dixf6LsZUuaDkr-120" value="&lt;font style=&quot;font-size: 8px;&quot;&gt;USE&lt;/font&gt;" style="edgeLabel;html=1;align=center;verticalAlign=middle;resizable=0;points=[];" vertex="1" connectable="0" parent="1">
          <mxGeometry x="413" y="370" as="geometry">
            <mxPoint x="42" y="-53" as="offset" />
          </mxGeometry>
        </mxCell>
        <mxCell id="s-dct3Dixf6LsZUuaDkr-57" value="조회" style="ellipse;whiteSpace=wrap;html=1;aspect=fixed;" vertex="1" parent="1">
          <mxGeometry x="500" y="405" width="40" height="40" as="geometry" />
        </mxCell>
        <mxCell id="s-dct3Dixf6LsZUuaDkr-62" value="" style="endArrow=block;endFill=0;endSize=4;html=1;rounded=0;exitX=1.001;exitY=0.608;exitDx=0;exitDy=0;exitPerimeter=0;entryX=-0.002;entryY=0.582;entryDx=0;entryDy=0;entryPerimeter=0;" edge="1" parent="1" source="s-dct3Dixf6LsZUuaDkr-57" target="s-dct3Dixf6LsZUuaDkr-56">
          <mxGeometry width="160" relative="1" as="geometry">
            <mxPoint x="508" y="446" as="sourcePoint" />
            <mxPoint x="668" y="446" as="targetPoint" />
          </mxGeometry>
        </mxCell>
      </root>
    </mxGraphModel>
  </diagram>
  <diagram id="1GNc7JNVWh0fvsZwafnC" name="페이지-2">
    <mxGraphModel dx="1240" dy="653" grid="1" gridSize="10" guides="1" tooltips="1" connect="1" arrows="1" fold="1" page="1" pageScale="1" pageWidth="827" pageHeight="1169" math="0" shadow="0">
      <root>
        <mxCell id="0" />
        <mxCell id="1" parent="0" />
        <mxCell id="prphjMj8plXfg6p5t9-S-1" value="회원" style="shape=umlActor;verticalLabelPosition=bottom;verticalAlign=top;html=1;outlineConnect=0;" vertex="1" parent="1">
          <mxGeometry x="280" y="430" width="30" height="60" as="geometry" />
        </mxCell>
        <mxCell id="prphjMj8plXfg6p5t9-S-2" value="비회원" style="shape=umlActor;verticalLabelPosition=bottom;verticalAlign=top;html=1;outlineConnect=0;" vertex="1" parent="1">
          <mxGeometry x="270" y="755" width="30" height="60" as="geometry" />
        </mxCell>
        <mxCell id="prphjMj8plXfg6p5t9-S-3" value="관리자" style="shape=umlActor;verticalLabelPosition=bottom;verticalAlign=top;html=1;outlineConnect=0;" vertex="1" parent="1">
          <mxGeometry x="1000" y="560" width="30" height="60" as="geometry" />
        </mxCell>
        <mxCell id="prphjMj8plXfg6p5t9-S-4" value="대구특별시 홈페이지" style="shape=umlFrame;whiteSpace=wrap;html=1;pointerEvents=0;width=130;height=30;" vertex="1" parent="1">
          <mxGeometry x="330" y="340" width="650" height="510" as="geometry" />
        </mxCell>
        <mxCell id="prphjMj8plXfg6p5t9-S-5" value="" style="group" vertex="1" connectable="0" parent="1">
          <mxGeometry x="520" y="389" width="179" height="120" as="geometry" />
        </mxCell>
        <mxCell id="prphjMj8plXfg6p5t9-S-6" value="감사정보" style="ellipse;whiteSpace=wrap;html=1;" vertex="1" parent="prphjMj8plXfg6p5t9-S-5">
          <mxGeometry x="24" y="-29" width="80" height="50" as="geometry" />
        </mxCell>
        <mxCell id="prphjMj8plXfg6p5t9-S-8" value="" style="edgeStyle=orthogonalEdgeStyle;rounded=0;orthogonalLoop=1;jettySize=auto;html=1;endArrow=block;endFill=0;endSize=4;" edge="1" parent="prphjMj8plXfg6p5t9-S-5" source="prphjMj8plXfg6p5t9-S-9" target="prphjMj8plXfg6p5t9-S-6">
          <mxGeometry relative="1" as="geometry">
            <Array as="points">
              <mxPoint x="90" y="32" />
              <mxPoint x="64" y="32" />
            </Array>
          </mxGeometry>
        </mxCell>
        <mxCell id="prphjMj8plXfg6p5t9-S-9" value="수정" style="ellipse;whiteSpace=wrap;html=1;aspect=fixed;" vertex="1" parent="prphjMj8plXfg6p5t9-S-5">
          <mxGeometry x="70" y="51" width="40" height="40" as="geometry" />
        </mxCell>
        <mxCell id="prphjMj8plXfg6p5t9-S-10" value="" style="edgeStyle=orthogonalEdgeStyle;rounded=0;orthogonalLoop=1;jettySize=auto;html=1;endArrow=block;endFill=0;endSize=4;" edge="1" parent="prphjMj8plXfg6p5t9-S-5" source="prphjMj8plXfg6p5t9-S-11" target="prphjMj8plXfg6p5t9-S-6">
          <mxGeometry relative="1" as="geometry">
            <Array as="points">
              <mxPoint x="136" y="32" />
              <mxPoint x="64" y="32" />
            </Array>
          </mxGeometry>
        </mxCell>
        <mxCell id="prphjMj8plXfg6p5t9-S-11" value="삭제" style="ellipse;whiteSpace=wrap;html=1;aspect=fixed;" vertex="1" parent="prphjMj8plXfg6p5t9-S-5">
          <mxGeometry x="116" y="51" width="40" height="40" as="geometry" />
        </mxCell>
        <mxCell id="prphjMj8plXfg6p5t9-S-13" value="" style="edgeStyle=orthogonalEdgeStyle;rounded=0;orthogonalLoop=1;jettySize=auto;html=1;entryX=0.5;entryY=1;entryDx=0;entryDy=0;endArrow=block;endFill=0;endSize=4;" edge="1" parent="prphjMj8plXfg6p5t9-S-5" source="prphjMj8plXfg6p5t9-S-14" target="prphjMj8plXfg6p5t9-S-6">
          <mxGeometry relative="1" as="geometry">
            <Array as="points">
              <mxPoint x="43" y="32" />
              <mxPoint x="64" y="32" />
            </Array>
          </mxGeometry>
        </mxCell>
        <mxCell id="prphjMj8plXfg6p5t9-S-14" value="등록" style="ellipse;whiteSpace=wrap;html=1;aspect=fixed;" vertex="1" parent="prphjMj8plXfg6p5t9-S-5">
          <mxGeometry x="23" y="51" width="40" height="40" as="geometry" />
        </mxCell>
        <mxCell id="prphjMj8plXfg6p5t9-S-15" value="&lt;font style=&quot;font-size: 8px;&quot;&gt;USE&lt;/font&gt;" style="html=1;verticalAlign=bottom;endArrow=block;curved=0;rounded=0;entryX=0.065;entryY=0.31;entryDx=0;entryDy=0;entryPerimeter=0;" edge="1" parent="1" source="prphjMj8plXfg6p5t9-S-2" target="prphjMj8plXfg6p5t9-S-17">
          <mxGeometry width="80" relative="1" as="geometry">
            <mxPoint x="610" y="700" as="sourcePoint" />
            <mxPoint x="690" y="700" as="targetPoint" />
          </mxGeometry>
        </mxCell>
        <mxCell id="prphjMj8plXfg6p5t9-S-16" value="로그인" style="strokeWidth=1;html=1;shape=mxgraph.flowchart.start_1;whiteSpace=wrap;" vertex="1" parent="1">
          <mxGeometry x="490" y="533.4" width="60" height="50" as="geometry" />
        </mxCell>
        <mxCell id="prphjMj8plXfg6p5t9-S-17" value="회원가입" style="strokeWidth=1;html=1;shape=mxgraph.flowchart.start_1;whiteSpace=wrap;" vertex="1" parent="1">
          <mxGeometry x="390" y="780" width="60" height="50" as="geometry" />
        </mxCell>
        <mxCell id="prphjMj8plXfg6p5t9-S-18" value="" style="endArrow=block;endFill=1;endSize=5;html=1;rounded=0;entryX=1;entryY=0.5;entryDx=0;entryDy=0;" edge="1" parent="1" source="prphjMj8plXfg6p5t9-S-3" target="prphjMj8plXfg6p5t9-S-6">
          <mxGeometry width="160" relative="1" as="geometry">
            <mxPoint x="780" y="510" as="sourcePoint" />
            <mxPoint x="940" y="510" as="targetPoint" />
          </mxGeometry>
        </mxCell>
        <mxCell id="prphjMj8plXfg6p5t9-S-19" value="&lt;font style=&quot;font-size: 8px;&quot;&gt;USE&lt;/font&gt;" style="edgeLabel;html=1;align=center;verticalAlign=middle;resizable=0;points=[];" vertex="1" connectable="0" parent="prphjMj8plXfg6p5t9-S-18">
          <mxGeometry x="0.0004" y="1" relative="1" as="geometry">
            <mxPoint as="offset" />
          </mxGeometry>
        </mxCell>
        <mxCell id="prphjMj8plXfg6p5t9-S-22" value="" style="group" vertex="1" connectable="0" parent="1">
          <mxGeometry x="710" y="660" width="179" height="120" as="geometry" />
        </mxCell>
        <mxCell id="prphjMj8plXfg6p5t9-S-23" value="시청안내" style="ellipse;whiteSpace=wrap;html=1;" vertex="1" parent="prphjMj8plXfg6p5t9-S-22">
          <mxGeometry x="47" width="80" height="50" as="geometry" />
        </mxCell>
        <mxCell id="prphjMj8plXfg6p5t9-S-24" value="" style="edgeStyle=orthogonalEdgeStyle;rounded=0;orthogonalLoop=1;jettySize=auto;html=1;endArrow=block;endFill=0;endSize=4;" edge="1" parent="prphjMj8plXfg6p5t9-S-22" source="prphjMj8plXfg6p5t9-S-25" target="prphjMj8plXfg6p5t9-S-23">
          <mxGeometry relative="1" as="geometry">
            <Array as="points">
              <mxPoint x="113" y="60" />
              <mxPoint x="87" y="60" />
            </Array>
          </mxGeometry>
        </mxCell>
        <mxCell id="prphjMj8plXfg6p5t9-S-25" value="수정" style="ellipse;whiteSpace=wrap;html=1;aspect=fixed;" vertex="1" parent="prphjMj8plXfg6p5t9-S-22">
          <mxGeometry x="93" y="80" width="40" height="40" as="geometry" />
        </mxCell>
        <mxCell id="prphjMj8plXfg6p5t9-S-26" value="" style="edgeStyle=orthogonalEdgeStyle;rounded=0;orthogonalLoop=1;jettySize=auto;html=1;endArrow=block;endFill=0;endSize=4;" edge="1" parent="prphjMj8plXfg6p5t9-S-22" source="prphjMj8plXfg6p5t9-S-27" target="prphjMj8plXfg6p5t9-S-23">
          <mxGeometry relative="1" as="geometry">
            <Array as="points">
              <mxPoint x="159" y="60" />
              <mxPoint x="87" y="60" />
            </Array>
          </mxGeometry>
        </mxCell>
        <mxCell id="prphjMj8plXfg6p5t9-S-27" value="삭제" style="ellipse;whiteSpace=wrap;html=1;aspect=fixed;" vertex="1" parent="prphjMj8plXfg6p5t9-S-22">
          <mxGeometry x="139" y="80" width="40" height="40" as="geometry" />
        </mxCell>
        <mxCell id="prphjMj8plXfg6p5t9-S-28" value="" style="edgeStyle=orthogonalEdgeStyle;rounded=0;orthogonalLoop=1;jettySize=auto;html=1;entryX=0.5;entryY=1;entryDx=0;entryDy=0;endArrow=block;endFill=0;endSize=4;" edge="1" parent="prphjMj8plXfg6p5t9-S-22" target="prphjMj8plXfg6p5t9-S-23">
          <mxGeometry relative="1" as="geometry">
            <Array as="points">
              <mxPoint x="70" y="60" />
              <mxPoint x="87" y="60" />
            </Array>
            <mxPoint x="70" y="90" as="sourcePoint" />
          </mxGeometry>
        </mxCell>
        <mxCell id="prphjMj8plXfg6p5t9-S-29" value="등록" style="ellipse;whiteSpace=wrap;html=1;aspect=fixed;" vertex="1" parent="prphjMj8plXfg6p5t9-S-22">
          <mxGeometry x="40" y="80" width="40" height="40" as="geometry" />
        </mxCell>
        <mxCell id="prphjMj8plXfg6p5t9-S-32" value="&lt;font style=&quot;font-size: 8px;&quot;&gt;&amp;lt;&amp;lt;Include&amp;gt;&amp;gt;&lt;/font&gt;" style="endArrow=open;endSize=6;dashed=1;html=1;rounded=0;exitX=0.034;exitY=0.609;exitDx=0;exitDy=0;entryX=1;entryY=0.5;entryDx=0;entryDy=0;entryPerimeter=0;exitPerimeter=0;" edge="1" parent="1" source="prphjMj8plXfg6p5t9-S-39" target="prphjMj8plXfg6p5t9-S-16">
          <mxGeometry width="160" relative="1" as="geometry">
            <mxPoint x="580" y="473.4" as="sourcePoint" />
            <mxPoint x="740" y="473.4" as="targetPoint" />
          </mxGeometry>
        </mxCell>
        <mxCell id="prphjMj8plXfg6p5t9-S-33" value="삭제" style="ellipse;whiteSpace=wrap;html=1;aspect=fixed;" vertex="1" parent="1">
          <mxGeometry x="669" y="610" width="40" height="40" as="geometry" />
        </mxCell>
        <mxCell id="prphjMj8plXfg6p5t9-S-34" value="등록" style="ellipse;whiteSpace=wrap;html=1;aspect=fixed;" vertex="1" parent="1">
          <mxGeometry x="618" y="610" width="40" height="40" as="geometry" />
        </mxCell>
        <mxCell id="prphjMj8plXfg6p5t9-S-35" value="수정" style="ellipse;whiteSpace=wrap;html=1;aspect=fixed;" vertex="1" parent="1">
          <mxGeometry x="710" y="610" width="40" height="40" as="geometry" />
        </mxCell>
        <mxCell id="prphjMj8plXfg6p5t9-S-36" value="" style="endArrow=block;endFill=0;endSize=4;html=1;rounded=0;exitX=0.43;exitY=-0.001;exitDx=0;exitDy=0;entryX=0.574;entryY=0.998;entryDx=0;entryDy=0;entryPerimeter=0;exitPerimeter=0;" edge="1" parent="1" source="prphjMj8plXfg6p5t9-S-34" target="prphjMj8plXfg6p5t9-S-39">
          <mxGeometry width="160" relative="1" as="geometry">
            <mxPoint x="584" y="609.48" as="sourcePoint" />
            <mxPoint x="551" y="570" as="targetPoint" />
            <Array as="points">
              <mxPoint x="643" y="590" />
              <mxPoint x="664" y="590" />
            </Array>
          </mxGeometry>
        </mxCell>
        <mxCell id="prphjMj8plXfg6p5t9-S-37" value="" style="endArrow=block;endFill=0;endSize=4;html=1;rounded=0;exitX=0.341;exitY=0.032;exitDx=0;exitDy=0;exitPerimeter=0;entryX=0.575;entryY=0.997;entryDx=0;entryDy=0;entryPerimeter=0;" edge="1" parent="1" source="prphjMj8plXfg6p5t9-S-35" target="prphjMj8plXfg6p5t9-S-39">
          <mxGeometry width="160" relative="1" as="geometry">
            <mxPoint x="534" y="570" as="sourcePoint" />
            <mxPoint x="664" y="580" as="targetPoint" />
            <Array as="points">
              <mxPoint x="723" y="590" />
              <mxPoint x="664" y="590" />
            </Array>
          </mxGeometry>
        </mxCell>
        <mxCell id="prphjMj8plXfg6p5t9-S-38" value="" style="endArrow=block;endFill=0;endSize=4;html=1;rounded=0;exitX=0.614;exitY=0.019;exitDx=0;exitDy=0;exitPerimeter=0;entryX=0.575;entryY=0.998;entryDx=0;entryDy=0;entryPerimeter=0;" edge="1" parent="1" source="prphjMj8plXfg6p5t9-S-33" target="prphjMj8plXfg6p5t9-S-39">
          <mxGeometry width="160" relative="1" as="geometry">
            <mxPoint x="764" y="570" as="sourcePoint" />
            <mxPoint x="664" y="600" as="targetPoint" />
            <Array as="points">
              <mxPoint x="664" y="590" />
            </Array>
          </mxGeometry>
        </mxCell>
        <mxCell id="prphjMj8plXfg6p5t9-S-39" value="자유게시판" style="ellipse;whiteSpace=wrap;html=1;" vertex="1" parent="1">
          <mxGeometry x="618" y="530" width="80" height="50" as="geometry" />
        </mxCell>
        <mxCell id="prphjMj8plXfg6p5t9-S-40" value="" style="endArrow=block;endFill=1;endSize=5;html=1;rounded=0;entryX=0.028;entryY=0.321;entryDx=0;entryDy=0;entryPerimeter=0;" edge="1" parent="1" source="prphjMj8plXfg6p5t9-S-1" target="prphjMj8plXfg6p5t9-S-39">
          <mxGeometry width="160" relative="1" as="geometry">
            <mxPoint x="370" y="534" as="sourcePoint" />
            <mxPoint x="742" y="490" as="targetPoint" />
          </mxGeometry>
        </mxCell>
        <mxCell id="prphjMj8plXfg6p5t9-S-41" value="&lt;font style=&quot;font-size: 8px;&quot;&gt;USE&lt;/font&gt;" style="edgeLabel;html=1;align=center;verticalAlign=middle;resizable=0;points=[];" vertex="1" connectable="0" parent="prphjMj8plXfg6p5t9-S-40">
          <mxGeometry x="0.0004" y="1" relative="1" as="geometry">
            <mxPoint as="offset" />
          </mxGeometry>
        </mxCell>
        <mxCell id="prphjMj8plXfg6p5t9-S-44" value="" style="endArrow=block;endFill=1;endSize=5;html=1;rounded=0;entryX=0.961;entryY=0.285;entryDx=0;entryDy=0;entryPerimeter=0;" edge="1" parent="1" source="prphjMj8plXfg6p5t9-S-3" target="prphjMj8plXfg6p5t9-S-23">
          <mxGeometry width="160" relative="1" as="geometry">
            <mxPoint x="1051" y="803" as="sourcePoint" />
            <mxPoint x="870" y="640" as="targetPoint" />
          </mxGeometry>
        </mxCell>
        <mxCell id="prphjMj8plXfg6p5t9-S-45" value="&lt;font style=&quot;font-size: 8px;&quot;&gt;USE&lt;/font&gt;" style="edgeLabel;html=1;align=center;verticalAlign=middle;resizable=0;points=[];" vertex="1" connectable="0" parent="prphjMj8plXfg6p5t9-S-44">
          <mxGeometry x="0.0004" y="1" relative="1" as="geometry">
            <mxPoint as="offset" />
          </mxGeometry>
        </mxCell>
        <mxCell id="prphjMj8plXfg6p5t9-S-47" value="" style="endArrow=block;endFill=1;endSize=5;html=1;rounded=0;entryX=1.013;entryY=0.38;entryDx=0;entryDy=0;entryPerimeter=0;" edge="1" parent="1" source="prphjMj8plXfg6p5t9-S-3" target="prphjMj8plXfg6p5t9-S-39">
          <mxGeometry width="160" relative="1" as="geometry">
            <mxPoint x="1143" y="719" as="sourcePoint" />
            <mxPoint x="790" y="550" as="targetPoint" />
          </mxGeometry>
        </mxCell>
        <mxCell id="prphjMj8plXfg6p5t9-S-48" value="&lt;font style=&quot;font-size: 8px;&quot;&gt;USE&lt;/font&gt;" style="edgeLabel;html=1;align=center;verticalAlign=middle;resizable=0;points=[];" vertex="1" connectable="0" parent="prphjMj8plXfg6p5t9-S-47">
          <mxGeometry x="0.0004" y="1" relative="1" as="geometry">
            <mxPoint as="offset" />
          </mxGeometry>
        </mxCell>
        <mxCell id="prphjMj8plXfg6p5t9-S-49" value="" style="endArrow=block;endFill=1;endSize=5;html=1;rounded=0;entryX=0.264;entryY=0.06;entryDx=0;entryDy=0;entryPerimeter=0;" edge="1" parent="1" source="prphjMj8plXfg6p5t9-S-1" target="prphjMj8plXfg6p5t9-S-16">
          <mxGeometry width="160" relative="1" as="geometry">
            <mxPoint x="280" y="520" as="sourcePoint" />
            <mxPoint x="487" y="633" as="targetPoint" />
          </mxGeometry>
        </mxCell>
        <mxCell id="prphjMj8plXfg6p5t9-S-50" value="&lt;font style=&quot;font-size: 8px;&quot;&gt;USE&lt;/font&gt;" style="edgeLabel;html=1;align=center;verticalAlign=middle;resizable=0;points=[];" vertex="1" connectable="0" parent="prphjMj8plXfg6p5t9-S-49">
          <mxGeometry x="0.0004" y="1" relative="1" as="geometry">
            <mxPoint as="offset" />
          </mxGeometry>
        </mxCell>
        <mxCell id="prphjMj8plXfg6p5t9-S-51" value="게시글&lt;div&gt;조회&lt;/div&gt;" style="ellipse;whiteSpace=wrap;html=1;aspect=fixed;" vertex="1" parent="1">
          <mxGeometry x="465" y="600" width="40" height="40" as="geometry" />
        </mxCell>
        <mxCell id="prphjMj8plXfg6p5t9-S-52" value="&lt;font style=&quot;font-size: 8px;&quot;&gt;전체글보기&lt;/font&gt;" style="strokeWidth=1;html=1;shape=mxgraph.flowchart.start_1;whiteSpace=wrap;" vertex="1" parent="1">
          <mxGeometry x="457.5" y="683.4" width="55" height="30" as="geometry" />
        </mxCell>
        <mxCell id="prphjMj8plXfg6p5t9-S-53" value="&lt;font style=&quot;font-size: 8px;&quot;&gt;키워드 검색&lt;/font&gt;" style="strokeWidth=1;html=1;shape=mxgraph.flowchart.start_1;whiteSpace=wrap;" vertex="1" parent="1">
          <mxGeometry x="520" y="648.4" width="45" height="30" as="geometry" />
        </mxCell>
        <mxCell id="prphjMj8plXfg6p5t9-S-54" value="&lt;font style=&quot;font-size: 8px;&quot;&gt;&amp;lt;&amp;lt;Extend&amp;gt;&amp;gt;&lt;/font&gt;" style="endArrow=open;endSize=7;dashed=1;html=1;rounded=0;exitX=0.429;exitY=0;exitDx=0;exitDy=0;exitPerimeter=0;entryX=0.5;entryY=1;entryDx=0;entryDy=0;" edge="1" parent="1" source="prphjMj8plXfg6p5t9-S-52" target="prphjMj8plXfg6p5t9-S-51">
          <mxGeometry x="-0.4871" y="-6" width="160" relative="1" as="geometry">
            <mxPoint x="445" y="624.4" as="sourcePoint" />
            <mxPoint x="605" y="624.4" as="targetPoint" />
            <mxPoint as="offset" />
          </mxGeometry>
        </mxCell>
        <mxCell id="prphjMj8plXfg6p5t9-S-55" value="&lt;font style=&quot;font-size: 8px;&quot;&gt;&amp;lt;&amp;lt;Extend&amp;gt;&amp;gt;&lt;/font&gt;" style="endArrow=open;endSize=7;dashed=1;html=1;rounded=0;exitX=0.398;exitY=-0.054;exitDx=0;exitDy=0;exitPerimeter=0;entryX=0.5;entryY=1;entryDx=0;entryDy=0;" edge="1" parent="1" source="prphjMj8plXfg6p5t9-S-53" target="prphjMj8plXfg6p5t9-S-51">
          <mxGeometry x="-0.7382" y="-3" width="160" relative="1" as="geometry">
            <mxPoint x="635" y="719.4" as="sourcePoint" />
            <mxPoint x="642" y="654.4" as="targetPoint" />
            <mxPoint as="offset" />
          </mxGeometry>
        </mxCell>
        <mxCell id="prphjMj8plXfg6p5t9-S-56" value="" style="endArrow=block;endFill=1;endSize=5;html=1;rounded=0;entryX=0;entryY=0.5;entryDx=0;entryDy=0;" edge="1" parent="1" source="prphjMj8plXfg6p5t9-S-1" target="prphjMj8plXfg6p5t9-S-51">
          <mxGeometry width="160" relative="1" as="geometry">
            <mxPoint x="330" y="640" as="sourcePoint" />
            <mxPoint x="420" y="640" as="targetPoint" />
            <Array as="points">
              <mxPoint x="300" y="510" />
              <mxPoint x="300" y="640" />
            </Array>
          </mxGeometry>
        </mxCell>
        <mxCell id="prphjMj8plXfg6p5t9-S-57" value="&lt;font style=&quot;font-size: 8px;&quot;&gt;USE&lt;/font&gt;" style="edgeLabel;html=1;align=center;verticalAlign=middle;resizable=0;points=[];" vertex="1" connectable="0" parent="prphjMj8plXfg6p5t9-S-56">
          <mxGeometry x="0.0004" y="1" relative="1" as="geometry">
            <mxPoint x="-6" y="10" as="offset" />
          </mxGeometry>
        </mxCell>
        <mxCell id="prphjMj8plXfg6p5t9-S-58" value="" style="endArrow=block;endFill=1;endSize=5;html=1;rounded=0;entryX=0;entryY=0.5;entryDx=0;entryDy=0;" edge="1" parent="1" target="prphjMj8plXfg6p5t9-S-51">
          <mxGeometry width="160" relative="1" as="geometry">
            <mxPoint x="290" y="750" as="sourcePoint" />
            <mxPoint x="356" y="812" as="targetPoint" />
            <Array as="points">
              <mxPoint x="300" y="740" />
              <mxPoint x="300" y="640" />
            </Array>
          </mxGeometry>
        </mxCell>
        <mxCell id="prphjMj8plXfg6p5t9-S-59" value="관리자&lt;div&gt;로그인&lt;/div&gt;" style="strokeWidth=1;html=1;shape=mxgraph.flowchart.start_1;whiteSpace=wrap;" vertex="1" parent="1">
          <mxGeometry x="900" y="355" width="60" height="50" as="geometry" />
        </mxCell>
        <mxCell id="prphjMj8plXfg6p5t9-S-60" value="" style="group" vertex="1" connectable="0" parent="1">
          <mxGeometry x="630" y="405" width="179" height="120" as="geometry" />
        </mxCell>
        <mxCell id="prphjMj8plXfg6p5t9-S-61" value="회원관리" style="ellipse;whiteSpace=wrap;html=1;" vertex="1" parent="prphjMj8plXfg6p5t9-S-60">
          <mxGeometry x="77" y="-10" width="47" height="40" as="geometry" />
        </mxCell>
        <mxCell id="prphjMj8plXfg6p5t9-S-62" value="" style="edgeStyle=orthogonalEdgeStyle;rounded=0;orthogonalLoop=1;jettySize=auto;html=1;endArrow=block;endFill=0;endSize=4;" edge="1" parent="prphjMj8plXfg6p5t9-S-60" source="prphjMj8plXfg6p5t9-S-63" target="prphjMj8plXfg6p5t9-S-61">
          <mxGeometry relative="1" as="geometry">
            <Array as="points">
              <mxPoint x="80" y="40" />
              <mxPoint x="97" y="40" />
            </Array>
          </mxGeometry>
        </mxCell>
        <mxCell id="prphjMj8plXfg6p5t9-S-63" value="수정" style="ellipse;whiteSpace=wrap;html=1;aspect=fixed;" vertex="1" parent="prphjMj8plXfg6p5t9-S-60">
          <mxGeometry x="60" y="60" width="40" height="40" as="geometry" />
        </mxCell>
        <mxCell id="prphjMj8plXfg6p5t9-S-64" value="" style="edgeStyle=orthogonalEdgeStyle;rounded=0;orthogonalLoop=1;jettySize=auto;html=1;endArrow=block;endFill=0;endSize=4;" edge="1" parent="prphjMj8plXfg6p5t9-S-60" source="prphjMj8plXfg6p5t9-S-65" target="prphjMj8plXfg6p5t9-S-61">
          <mxGeometry relative="1" as="geometry">
            <Array as="points">
              <mxPoint x="126" y="40" />
              <mxPoint x="97" y="40" />
            </Array>
          </mxGeometry>
        </mxCell>
        <mxCell id="prphjMj8plXfg6p5t9-S-65" value="삭제" style="ellipse;whiteSpace=wrap;html=1;aspect=fixed;" vertex="1" parent="prphjMj8plXfg6p5t9-S-60">
          <mxGeometry x="106" y="60" width="40" height="40" as="geometry" />
        </mxCell>
        <mxCell id="prphjMj8plXfg6p5t9-S-66" value="" style="endArrow=block;endFill=1;endSize=5;html=1;rounded=0;entryX=1;entryY=0.5;entryDx=0;entryDy=0;" edge="1" parent="1" source="prphjMj8plXfg6p5t9-S-3" target="prphjMj8plXfg6p5t9-S-61">
          <mxGeometry width="160" relative="1" as="geometry">
            <mxPoint x="957" y="492" as="sourcePoint" />
            <mxPoint x="890" y="400" as="targetPoint" />
          </mxGeometry>
        </mxCell>
        <mxCell id="prphjMj8plXfg6p5t9-S-67" value="&lt;font style=&quot;font-size: 8px;&quot;&gt;USE&lt;/font&gt;" style="edgeLabel;html=1;align=center;verticalAlign=middle;resizable=0;points=[];" vertex="1" connectable="0" parent="prphjMj8plXfg6p5t9-S-66">
          <mxGeometry x="0.0004" y="1" relative="1" as="geometry">
            <mxPoint as="offset" />
          </mxGeometry>
        </mxCell>
        <mxCell id="prphjMj8plXfg6p5t9-S-68" value="&lt;font style=&quot;font-size: 8px;&quot;&gt;&amp;lt;&amp;lt;Include&amp;gt;&amp;gt;&lt;/font&gt;" style="endArrow=open;endSize=8;dashed=1;html=1;rounded=0;entryX=0.026;entryY=0.431;entryDx=0;entryDy=0;entryPerimeter=0;exitX=1;exitY=0.5;exitDx=0;exitDy=0;" edge="1" parent="1" source="prphjMj8plXfg6p5t9-S-61" target="prphjMj8plXfg6p5t9-S-59">
          <mxGeometry x="0.0028" width="160" relative="1" as="geometry">
            <mxPoint x="820" y="430" as="sourcePoint" />
            <mxPoint x="770" y="500" as="targetPoint" />
            <mxPoint as="offset" />
          </mxGeometry>
        </mxCell>
        <mxCell id="prphjMj8plXfg6p5t9-S-70" value="시청안내 조회" style="ellipse;whiteSpace=wrap;html=1;aspect=fixed;" vertex="1" parent="1">
          <mxGeometry x="410" y="700" width="40" height="40" as="geometry" />
        </mxCell>
        <mxCell id="prphjMj8plXfg6p5t9-S-72" value="감사정보 조회" style="ellipse;whiteSpace=wrap;html=1;aspect=fixed;" vertex="1" parent="1">
          <mxGeometry x="414" y="545" width="40" height="40" as="geometry" />
        </mxCell>
        <mxCell id="prphjMj8plXfg6p5t9-S-73" value="" style="endArrow=block;endFill=1;endSize=5;html=1;rounded=0;entryX=0;entryY=0;entryDx=0;entryDy=0;" edge="1" parent="1" source="prphjMj8plXfg6p5t9-S-1" target="prphjMj8plXfg6p5t9-S-72">
          <mxGeometry width="160" relative="1" as="geometry">
            <mxPoint x="340" y="582.9999999999999" as="sourcePoint" />
            <mxPoint x="540" y="540" as="targetPoint" />
          </mxGeometry>
        </mxCell>
        <mxCell id="prphjMj8plXfg6p5t9-S-74" value="&lt;font style=&quot;font-size: 8px;&quot;&gt;USE&lt;/font&gt;" style="edgeLabel;html=1;align=center;verticalAlign=middle;resizable=0;points=[];" vertex="1" connectable="0" parent="prphjMj8plXfg6p5t9-S-73">
          <mxGeometry x="0.0004" y="1" relative="1" as="geometry">
            <mxPoint as="offset" />
          </mxGeometry>
        </mxCell>
        <mxCell id="prphjMj8plXfg6p5t9-S-75" value="" style="endArrow=block;endFill=1;endSize=5;html=1;rounded=0;entryX=0;entryY=0;entryDx=0;entryDy=0;" edge="1" parent="1" source="prphjMj8plXfg6p5t9-S-1" target="prphjMj8plXfg6p5t9-S-70">
          <mxGeometry width="160" relative="1" as="geometry">
            <mxPoint x="340" y="602.9999999999999" as="sourcePoint" />
            <mxPoint x="540" y="560" as="targetPoint" />
          </mxGeometry>
        </mxCell>
        <mxCell id="prphjMj8plXfg6p5t9-S-76" value="&lt;font style=&quot;font-size: 8px;&quot;&gt;USE&lt;/font&gt;" style="edgeLabel;html=1;align=center;verticalAlign=middle;resizable=0;points=[];" vertex="1" connectable="0" parent="prphjMj8plXfg6p5t9-S-75">
          <mxGeometry x="0.0004" y="1" relative="1" as="geometry">
            <mxPoint as="offset" />
          </mxGeometry>
        </mxCell>
        <mxCell id="prphjMj8plXfg6p5t9-S-80" value="" style="endArrow=block;endFill=1;endSize=5;html=1;rounded=0;entryX=0.293;entryY=0.886;entryDx=0;entryDy=0;entryPerimeter=0;exitX=0.5;exitY=0;exitDx=0;exitDy=0;exitPerimeter=0;" edge="1" parent="1" source="prphjMj8plXfg6p5t9-S-2" target="prphjMj8plXfg6p5t9-S-72">
          <mxGeometry width="160" relative="1" as="geometry">
            <mxPoint x="370" y="722.9999999999999" as="sourcePoint" />
            <mxPoint x="570" y="680" as="targetPoint" />
          </mxGeometry>
        </mxCell>
        <mxCell id="prphjMj8plXfg6p5t9-S-81" value="&lt;font style=&quot;font-size: 8px;&quot;&gt;USE&lt;/font&gt;" style="edgeLabel;html=1;align=center;verticalAlign=middle;resizable=0;points=[];" vertex="1" connectable="0" parent="prphjMj8plXfg6p5t9-S-80">
          <mxGeometry x="0.0004" y="1" relative="1" as="geometry">
            <mxPoint as="offset" />
          </mxGeometry>
        </mxCell>
        <mxCell id="prphjMj8plXfg6p5t9-S-82" value="" style="endArrow=block;endFill=1;endSize=5;html=1;rounded=0;entryX=0;entryY=1;entryDx=0;entryDy=0;" edge="1" parent="1" source="prphjMj8plXfg6p5t9-S-2" target="prphjMj8plXfg6p5t9-S-70">
          <mxGeometry width="160" relative="1" as="geometry">
            <mxPoint x="330" y="722.9999999999999" as="sourcePoint" />
            <mxPoint x="530" y="680" as="targetPoint" />
          </mxGeometry>
        </mxCell>
        <mxCell id="prphjMj8plXfg6p5t9-S-83" value="&lt;font style=&quot;font-size: 8px;&quot;&gt;USE&lt;/font&gt;" style="edgeLabel;html=1;align=center;verticalAlign=middle;resizable=0;points=[];" vertex="1" connectable="0" parent="prphjMj8plXfg6p5t9-S-82">
          <mxGeometry x="0.0004" y="1" relative="1" as="geometry">
            <mxPoint as="offset" />
          </mxGeometry>
        </mxCell>
        <mxCell id="cK8WbH9ErtB56Dr2nwjq-2" value="&lt;font style=&quot;font-size: 8px;&quot;&gt;&amp;lt;&amp;lt;Include&amp;gt;&amp;gt;&lt;/font&gt;" style="endArrow=open;endSize=8;dashed=1;html=1;rounded=0;entryX=0.5;entryY=1;entryDx=0;entryDy=0;entryPerimeter=0;" edge="1" parent="1" source="prphjMj8plXfg6p5t9-S-23" target="prphjMj8plXfg6p5t9-S-59">
          <mxGeometry x="0.0028" width="160" relative="1" as="geometry">
            <mxPoint x="780" y="623" as="sourcePoint" />
            <mxPoint x="859" y="620" as="targetPoint" />
            <mxPoint as="offset" />
          </mxGeometry>
        </mxCell>
        <mxCell id="cK8WbH9ErtB56Dr2nwjq-3" value="&lt;font style=&quot;font-size: 8px;&quot;&gt;&amp;lt;&amp;lt;Include&amp;gt;&amp;gt;&lt;/font&gt;" style="endArrow=open;endSize=8;dashed=1;html=1;rounded=0;entryX=0;entryY=0.5;entryDx=0;entryDy=0;entryPerimeter=0;exitX=1;exitY=0;exitDx=0;exitDy=0;" edge="1" parent="1" source="prphjMj8plXfg6p5t9-S-6" target="prphjMj8plXfg6p5t9-S-59">
          <mxGeometry x="0.0028" width="160" relative="1" as="geometry">
            <mxPoint x="760" y="493" as="sourcePoint" />
            <mxPoint x="839" y="490" as="targetPoint" />
            <mxPoint as="offset" />
          </mxGeometry>
        </mxCell>
      </root>
    </mxGraphModel>
  </diagram>
</mxfile>
